HIERARCHY
ROOT root
{
	OFFSET	0	13.1	24.9
	CHANNELS 6  Xposition Yposition Zposition Xrotation Yrotation Zrotation
	JOINT spine_1
	{
		OFFSET	0	9.99999	0
		CHANNELS 3  Xrotation Yrotation Zrotation
		JOINT spine_2
		{
			OFFSET	0	112	-10
			CHANNELS 3  Xrotation Yrotation Zrotation
			JOINT spine_3
			{
				OFFSET	0	206.5	19.3
				CHANNELS 3  Xrotation Yrotation Zrotation
				JOINT spine_4
				{
					OFFSET	0	110.4	14.6
					CHANNELS 3  Xrotation Yrotation Zrotation
					JOINT neck_1
					{
						OFFSET	0	71.8	-50.3
						CHANNELS 3  Xrotation Yrotation Zrotation
						JOINT neck_2
						{
							OFFSET	0	86.2	-25.8
							CHANNELS 3  Xrotation Yrotation Zrotation
							JOINT head_ee
							{
								OFFSET	0	179.8	-8.7
								CHANNELS 3  Xrotation Yrotation Zrotation
								End Site
								{
									OFFSET	1	0	0
								}
							}
						}
					}
					JOINT left_clavicle
					{
						OFFSET	-43.2	22.4	-70.8
						CHANNELS 3  Xrotation Yrotation Zrotation
						JOINT left_shoulder
						{
							OFFSET	-93.9	-5.79999	48.7
							CHANNELS 3  Xrotation Yrotation Zrotation
							JOINT left_elbow
							{
								OFFSET	-291.4	-30.8	15.2
								CHANNELS 3  Xrotation Yrotation Zrotation
								JOINT left_lowarm_twist
								{
									OFFSET	-110.7	-3.89999	13.6
									CHANNELS 3  Xrotation Yrotation Zrotation
									JOINT left_hand
									{
										OFFSET	-110.7	-3.89999	13.6
										CHANNELS 3  Xrotation Yrotation Zrotation
										JOINT left_ee
										{
											OFFSET	-80.8	-5.10001	12.1
											CHANNELS 3  Xrotation Yrotation Zrotation
											End Site
											{
												OFFSET	1	0	0
											}
										}
									}
								}
							}
						}
					}
					JOINT right_clavicle
					{
						OFFSET	43.2	22.4	-70.8
						CHANNELS 3  Xrotation Yrotation Zrotation
						JOINT right_shoulder
						{
							OFFSET	93.9	-5.79999	48.7
							CHANNELS 3  Xrotation Yrotation Zrotation
							JOINT right_elbow
							{
								OFFSET	291.4	-30.8	15.2
								CHANNELS 3  Xrotation Yrotation Zrotation
								JOINT right_lowarm_twist
								{
									OFFSET	110.7	-3.89999	13.6
									CHANNELS 3  Xrotation Yrotation Zrotation
									JOINT right_hand
									{
										OFFSET	110.7	-3.89999	13.6
										CHANNELS 3  Xrotation Yrotation Zrotation
										JOINT right_ee
										{
											OFFSET	80.8	-5.10001	12.1
											CHANNELS 3  Xrotation Yrotation Zrotation
											End Site
											{
												OFFSET	1	0	0
											}
										}
									}
								}
							}
						}
					}
				}
			}
		}
	}
	JOINT left_hip
	{
		OFFSET	-82.8	-127.5	0.300001
		CHANNELS 3  Xrotation Yrotation Zrotation
		JOINT left_knee
		{
			OFFSET	-28.2	-396.7	2.2
			CHANNELS 3  Xrotation Yrotation Zrotation
			JOINT left_ankle
			{
				OFFSET	-11.7	-411.3	35.4
				CHANNELS 3  Xrotation Yrotation Zrotation
				JOINT left_toes
				{
					OFFSET	0	-60	-88.6
					CHANNELS 3  Xrotation Yrotation Zrotation
					JOINT left_foot_ee
					{
						OFFSET	-22.5	-16.5	-42.2
						CHANNELS 3  Xrotation Yrotation Zrotation
						End Site
						{
							OFFSET	1	0	0
						}
					}
				}
			}
		}
	}
	JOINT right_hip
	{
		OFFSET	82.8	-127.5	0.300001
		CHANNELS 3  Xrotation Yrotation Zrotation
		JOINT right_knee
		{
			OFFSET	28.2	-396.7	2.2
			CHANNELS 3  Xrotation Yrotation Zrotation
			JOINT right_ankle
			{
				OFFSET	11.7	-411.3	35.4
				CHANNELS 3  Xrotation Yrotation Zrotation
				JOINT right_toes
				{
					OFFSET	0	-60	-88.6
					CHANNELS 3  Xrotation Yrotation Zrotation
					JOINT right_foot_ee
					{
						OFFSET	22.5	-16.5	-42.2
						CHANNELS 3  Xrotation Yrotation Zrotation
						End Site
						{
							OFFSET	1	0	0
						}
					}
				}
			}
		}
	}
}
MOTION
Frames: 13
Frame Time: 0.02
2345.92 726.41 -1444.75 -0.850149 67.7252 -0.0808383 0.616731 0.169779 0.574183 0.616904 0.132899 0.583822 0.618343 0.0136887 0.5986 0.617859 0.108053 0.588927 -10.0428 18.9404 7.25213 -10.2467 30.9058 11.8968 -0.0 0.0 -0.0 2.18801 23.2827 5.70515 -29.6423 -17.2651 65.3482 1.16065 -29.8957 0.309873 -47.9557 -3.83415 4.57173 0.56424 16.5296 10.2371 -0.0 0.0 -0.0 13.1946 18.9134 -26.7725 -17.2037 30.8758 -62.1208 0.635856 17.4837 -0.0977762 84.6688 4.3869 8.85074 0.749694 -23.3799 -13.7443 0.0 0.0 0.0 10.1555 33.8441 -10.9828 -10.4214 0.286834 1.57143 25.2663 -22.1655 -3.83307 3.62028 -0.0 -0.0 -0.0 0.0 -0.0 4.5003 6.33428 -2.56457 -12.1229 -0.306326 -1.83176 24.5763 25.3134 3.86642 -14.8603 0.0 0.0 0.0 0.0 0.0 
2342.75 722.947 -1442.29 -0.16434 68.0162 -0.407519 0.593107 0.161988 0.413687 0.593193 0.135336 0.423156 0.594243 0.0479616 0.441675 0.593989 0.117113 0.428557 -10.2986 19.2248 7.15898 -10.5528 31.5734 11.9657 -0.0 0.0 -0.0 1.40999 22.7413 4.59566 -28.5424 -18.2152 66.7623 1.17473 -30.1952 0.316923 -47.5791 -3.79082 4.55033 0.772242 16.3046 11.4571 -0.0 0.0 -0.0 13.0508 19.752 -26.3814 -18.2087 32.3711 -61.5042 0.615659 16.9607 -0.0917961 83.8822 4.29318 8.81329 0.671595 -23.3892 -13.2837 0.0 0.0 0.0 9.59945 34.702 -11.1224 -9.34679 0.270541 1.40734 24.8143 -24.3567 -3.8586 5.79805 -0.0 -0.0 -0.0 0.0 -0.0 4.67268 6.81724 -2.72034 -13.8926 -0.318391 -2.10301 27.1911 24.7347 4.18059 -15.3738 0.0 0.0 0.0 0.0 0.0 
2338.39 723.213 -1435.94 -0.468362 67.4909 0.226001 0.603508 0.13023 0.339155 0.603566 0.108385 0.346755 0.604255 0.0368992 0.36142 0.604085 0.0935153 0.351057 -11.2712 19.6169 7.77365 -11.6291 32.1608 12.9527 -0.0 0.0 -0.0 0.944605 23.0788 3.97581 -26.795 -19.1078 68.6023 1.14611 -29.5848 0.302662 -47.2554 -3.75369 4.53172 0.990966 16.1718 12.7879 -0.0 0.0 -0.0 12.8843 18.1297 -26.0959 -19.2865 33.3221 -60.5174 0.640623 17.6067 -0.099213 83.4269 4.23917 8.79102 0.904146 -22.1392 -14.2648 0.0 0.0 0.0 9.2766 35.9719 -10.806 -8.7341 0.259875 1.31393 23.71 -22.9071 -3.65769 7.84437 -0.0 -0.0 -0.0 0.0 -0.0 4.92115 6.02863 -2.87418 -14.9123 -0.321536 -2.25943 27.2493 22.9691 4.11375 -16.8382 0.0 0.0 0.0 0.0 0.0 
2338.66 725.189 -1426.78 -2.17315 67.5323 1.77216 0.731979 0.113402 0.156084 0.731987 0.10324 0.162984 0.73229 0.0689872 0.180175 0.732257 0.0965766 0.167019 -11.2749 19.5279 7.60701 -11.639 32.0995 12.7721 -0.0 0.0 -0.0 1.46323 23.175 4.69884 -26.3105 -19.1645 69.4503 1.06193 -27.7459 0.262276 -48.3722 -3.88225 4.59507 1.09853 16.7157 13.656 -0.0 0.0 -0.0 12.5974 17.2725 -25.4761 -20.0079 33.7924 -59.1818 0.652715 17.918 -0.102902 82.9501 4.1828 8.76724 0.806704 -21.1881 -13.3612 0.0 0.0 0.0 9.88357 36.8572 -9.89971 -7.4272 0.233789 1.11508 20.7164 -21.7888 -3.2167 8.5526 -0.0 -0.0 -0.0 0.0 -0.0 4.95632 6.46044 -2.59366 -12.5532 -0.310031 -1.89769 28.4027 20.7204 4.16746 -17.9496 0.0 0.0 0.0 0.0 0.0 
2337.1 726.568 -1419.86 -2.12754 67.0947 1.85461 0.668991 0.0960545 0.0395846 0.668987 0.0933409 0.0456166 0.669062 0.0824128 0.0632576 0.669068 0.0913689 0.0494482 -12.1808 19.8806 8.15379 -12.6509 32.6496 13.6788 -0.0 0.0 -0.0 1.29694 23.0938 4.46362 -24.9664 -18.825 70.173 1.0683 -27.8872 0.265246 -48.0824 -3.84877 4.57887 1.17543 16.499 14.069 -0.0 0.0 -0.0 12.3664 16.6825 -24.9711 -20.3476 34.2068 -57.9944 0.663841 18.2034 -0.106351 82.7519 4.15942 8.75722 0.887268 -20.7266 -13.6973 0.0 0.0 0.0 10.0481 38.3652 -9.44164 -6.18862 0.204885 0.927212 18.273 -20.3254 -2.83592 8.50585 -0.0 -0.0 -0.0 0.0 -0.0 5.06055 6.34962 -2.48526 -11.8271 -0.303493 -1.78647 26.6902 17.975 3.86958 -19.137 0.0 0.0 0.0 0.0 0.0 
2333.76 728.499 -1414.03 -1.56067 66.3493 1.41682 0.70554 0.0379689 -0.0240215 0.70554 0.0394205 -0.0215568 0.705525 0.04291 -0.0133194 0.705526 0.0402679 -0.0199291 -13.71 18.8118 7.98141 -14.2899 31.0667 13.6362 -0.0 0.0 -0.0 2.32225 22.652 5.864 -24.9207 -18.1191 69.2989 0.921787 -24.5423 0.2005 -47.9926 -3.83842 4.57382 1.13917 16.2342 13.7484 -0.0 0.0 -0.0 12.261 16.0667 -24.7556 -21.3243 34.2366 -57.4366 0.679602 18.6061 -0.111328 83.1455 4.20587 8.77704 0.967428 -19.6655 -13.8353 0.0 0.0 0.0 8.58525 39.1603 -8.56411 -6.5971 0.214867 0.989104 18.2461 -18.0664 -2.77728 10.5946 -0.0 -0.0 -0.0 0.0 -0.0 5.30706 9.61538 -1.71761 -10.9824 -0.294115 -1.6572 25.9575 21.1234 3.88308 -20.0143 0.0 0.0 0.0 0.0 0.0 
2328.57 732.262 -1407.93 -2.02775 65.8376 1.80681 0.751996 -0.0730405 -0.0572141 0.751995 -0.0692518 -0.0617459 0.752072 -0.0557061 -0.0741969 0.75207 -0.066725 -0.064468 -13.9659 19.0219 8.07305 -14.5942 31.4729 13.8796 -0.0 0.0 -0.0 2.85815 23.4014 6.63478 -23.6798 -18.1139 68.5908 0.836921 -22.518 0.166614 -48.4349 -3.8895 4.59855 1.03647 16.7006 13.2589 -0.0 0.0 -0.0 12.0352 15.6737 -24.2535 -21.1868 34.432 -56.7763 0.647282 17.7783 -0.101237 84.2707 4.33941 8.83195 1.02379 -19.0249 -13.9699 0.0 0.0 0.0 8.55395 39.8922 -8.06266 -7.2419 0.229724 1.08694 16.8412 -17.3207 -2.56596 12.9797 -0.0 -0.0 -0.0 0.0 -0.0 5.47224 7.23523 -2.06055 -7.74771 -0.240607 -1.16379 22.6364 17.1913 3.3415 -21.7914 0.0 0.0 0.0 0.0 0.0 
2326.44 734.314 -1403.96 -2.53055 65.067 2.51721 0.779754 0.129337 -0.200835 0.779765 0.141854 -0.192198 0.779281 0.176915 -0.160511 0.779276 0.149345 -0.186437 -14.255 19.066 7.52027 -14.9768 31.9522 13.4945 -0.0 0.0 -0.0 3.253 23.8994 7.18767 -22.8911 -18.1068 68.0762 0.805728 -21.7585 0.154858 -49.672 -4.03339 4.66564 0.724923 17.6113 11.6264 -0.0 0.0 -0.0 11.9691 14.7575 -24.1352 -21.5336 34.4233 -56.6074 0.629639 17.3231 -0.0959166 85.26 4.45768 8.87805 1.08067 -18.1236 -14.0219 0.0 0.0 0.0 7.8567 40.7716 -7.4425 -5.5297 0.187854 0.827527 15.8504 -16.905 -2.41858 15.1825 -0.0 -0.0 -0.0 0.0 -0.0 5.63699 6.81045 -1.89174 -5.21783 -0.179393 -0.780412 21.6595 17.2401 3.21606 -22.759 0.0 0.0 0.0 0.0 0.0 
2325.01 735.116 -1400.45 -2.28568 64.7335 2.44042 0.724079 0.299203 -0.182486 0.724044 0.310209 -0.163077 0.72313 0.336339 -0.0984865 0.723257 0.316564 -0.150369 -13.9864 19.2722 7.47563 -14.7001 32.3182 13.4443 -0.0 0.0 -0.0 3.49372 24.3441 7.52017 -21.9179 -17.7758 66.5331 0.839986 -22.5922 0.167789 -50.2259 -4.09828 4.69467 0.485687 17.4795 10.096 -0.0 0.0 -0.0 11.7252 14.3568 -23.5921 -22.0005 34.498 -56.7261 0.62782 17.276 -0.0953757 84.4168 4.35682 8.83888 0.916761 -20.9474 -13.9505 0.0 0.0 0.0 7.56872 41.3208 -7.12871 -4.70057 0.164796 0.702372 14.8896 -16.6231 -2.2772 17.0394 -0.0 -0.0 -0.0 0.0 -0.0 5.32542 4.35445 -2.03545 -3.6768 -0.133827 -0.54831 21.0212 16.301 3.10979 -23.726 0.0 0.0 0.0 0.0 0.0 
2322.27 736.259 -1397.66 -2.22993 64.2849 2.60506 0.677822 0.358636 -0.233907 0.677775 0.372793 -0.210612 0.676358 0.407199 -0.132367 0.676536 0.381184 -0.195016 -14.8391 18.8415 6.83125 -15.6735 32.0458 12.9829 -0.0 0.0 -0.0 3.9579 23.9894 8.15502 -21.0349 -18.1981 65.994 0.788788 -21.3426 0.148636 -50.9741 -4.18637 4.73288 0.263703 18.6174 9.15081 -0.0 0.0 -0.0 11.7144 14.2994 -23.5695 -22.0289 34.4714 -57.2363 0.615577 16.9586 -0.0917723 85.2277 4.45381 8.87658 1.00984 -17.7469 -13.4507 0.0 0.0 0.0 7.37756 41.6922 -7.0852 -4.66904 0.163883 0.69762 14.1282 -16.3104 -2.16303 17.6781 -0.0 -0.0 -0.0 0.0 -0.0 4.87204 5.67167 -2.19555 -2.70272 -0.101807 -0.402247 22.3315 17.2985 3.30493 -23.9844 0.0 0.0 0.0 0.0 0.0 
2319.29 737.286 -1398.71 -2.21367 64.1694 2.9157 0.649309 0.408902 -0.200028 0.649233 0.420801 -0.173603 0.647904 0.446942 -0.0863378 0.648149 0.427697 -0.155842 -15.123 18.7836 6.66343 -16.004 32.0863 12.9051 -0.0 0.0 -0.0 4.00537 23.6527 8.22324 -20.618 -18.1974 65.2069 0.797327 -21.5525 0.151758 -51.3778 -4.2341 4.75302 0.0853417 18.8387 8.14813 -0.0 0.0 -0.0 11.5749 13.6674 -23.2709 -22.2929 34.448 -57.9112 0.610315 16.8219 -0.0902435 85.0437 4.43175 8.86814 0.921422 -17.8822 -12.9445 0.0 0.0 0.0 7.15084 41.5544 -7.44375 -3.8456 0.139123 0.573674 13.4172 -16.373 -2.06172 18.4114 -0.0 -0.0 -0.0 0.0 -0.0 4.31093 5.34968 -2.44248 -2.38525 -0.0908352 -0.35476 23.0131 17.4061 3.3955 -24.3925 0.0 0.0 0.0 0.0 0.0 
2320.52 736.735 -1394.99 -2.68148 64.1105 3.68469 0.655813 0.296724 -0.252568 0.655794 0.312194 -0.233175 0.654487 0.352353 -0.166383 0.654593 0.321654 -0.219942 -14.887 18.9347 6.34676 -15.7833 32.5175 12.6032 -0.0 0.0 -0.0 4.28412 23.2843 8.61552 -21.4719 -19.0022 64.2974 0.899968 -24.0279 0.191527 -51.3105 -4.22613 4.74968 -0.0420317 18.092 7.08775 -0.0 0.0 -0.0 11.6868 15.2413 -23.4747 -22.7729 34.3456 -57.8203 0.600416 16.5641 -0.0874001 85.1943 4.4498 8.87505 0.821582 -18.9176 -12.6814 0.0 0.0 0.0 7.12369 41.6757 -7.40222 -2.58568 0.0977931 0.384733 13.9786 -17.8235 -2.16766 19.2458 -0.0 -0.0 -0.0 0.0 -0.0 4.07274 5.09777 -2.20008 -0.70792 -0.0285013 -0.104899 21.4305 18.5952 3.22112 -24.7322 0.0 0.0 0.0 0.0 0.0 
2314.03 738.437 -1394.19 -2.31944 63.4832 3.13098 0.588256 0.371273 -0.234554 0.588205 0.385446 -0.210454 0.586738 0.41977 -0.129042 0.586931 0.394122 -0.193719 -15.4263 18.8087 6.33773 -16.383 32.378 12.7286 -0.0 0.0 -0.0 4.37041 23.4673 8.73284 -19.9267 -18.5754 63.7506 0.876992 -23.4816 0.182271 -51.9005 -4.29611 4.77859 -0.168956 19.0986 6.70922 -0.0 0.0 -0.0 11.5414 14.3657 -23.1747 -22.851 34.3708 -58.2363 0.593098 16.3731 -0.0853254 85.0114 4.42789 8.86666 0.796361 -18.3312 -12.3224 0.0 0.0 0.0 6.16848 42.1739 -6.74482 -2.67303 0.100793 0.397804 13.143 -16.1739 -2.01891 19.3149 -0.0 -0.0 -0.0 0.0 -0.0 4.07964 4.94208 -2.22154 -1.14402 -0.0454122 -0.169689 23.1203 17.4843 3.41131 -24.8062 0.0 0.0 0.0 0.0 0.0 
